ffmpeg version 3.4.8-0ubuntu0.2 Copyright (c) 2000-2020 the FFmpeg developers
  built with gcc 7 (Ubuntu 7.5.0-3ubuntu1~18.04)
  configuration: --prefix=/usr --extra-version=0ubuntu0.2 --toolchain=hardened --libdir=/usr/lib/x86_64-linux-gnu --incdir=/usr/include/x86_64-linux-gnu --enable-gpl --disable-stripping --enable-avresample --enable-avisynth --enable-gnutls --enable-ladspa --enable-libass --enable-libbluray --enable-libbs2b --enable-libcaca --enable-libcdio --enable-libflite --enable-libfontconfig --enable-libfreetype --enable-libfribidi --enable-libgme --enable-libgsm --enable-libmp3lame --enable-libmysofa --enable-libopenjpeg --enable-libopenmpt --enable-libopus --enable-libpulse --enable-librubberband --enable-librsvg --enable-libshine --enable-libsnappy --enable-libsoxr --enable-libspeex --enable-libssh --enable-libtheora --enable-libtwolame --enable-libvorbis --enable-libvpx --enable-libwavpack --enable-libwebp --enable-libx265 --enable-libxml2 --enable-libxvid --enable-libzmq --enable-libzvbi --enable-omx --enable-openal --enable-opengl --enable-sdl2 --enable-libdc1394 --enable-libdrm --enable-libiec61883 --enable-chromaprint --enable-frei0r --enable-libopencv --enable-libx264 --enable-shared
  libavutil      55. 78.100 / 55. 78.100
  libavcodec     57.107.100 / 57.107.100
  libavformat    57. 83.100 / 57. 83.100
  libavdevice    57. 10.100 / 57. 10.100
  libavfilter     6.107.100 /  6.107.100
  libavresample   3.  7.  0 /  3.  7.  0
  libswscale      4.  8.100 /  4.  8.100
  libswresample   2.  9.100 /  2.  9.100
  libpostproc    54.  7.100 / 54.  7.100
[rawvideo @ 0x55bdc1c88a20] Estimating duration from bitrate, this may be inaccurate
Input #0, rawvideo, from '../../SVC-Encoder-20220109T061506Z-001/SVC-Encoder/Dataset/RollerCoaster/6f_2x2/tile_yuv/f0_t3_480x480.yuv':
  Duration: 00:00:10.00, start: 0.000000, bitrate: 82944 kb/s
    Stream #0:0: Video: rawvideo (I420 / 0x30323449), yuv420p, 480x480, 82944 kb/s, 30 tbr, 30 tbn, 30 tbc
Stream mapping:
  Stream #0:0 -> #0:0 (rawvideo (native) -> h264 (libx264))
Press [q] to stop, [?] for help
[libx264 @ 0x55bdc1c95c60] using cpu capabilities: MMX2 SSE2Fast LZCNT SSSE3 SSE4.2 AVX
[libx264 @ 0x55bdc1c95c60] profile High, level 3.0
Output #0, rawvideo, to 'RollerCoaster_f0_t3_480x480_x264_QP_40.h264':
  Metadata:
    encoder         : Lavf57.83.100
    Stream #0:0: Video: h264 (libx264), yuv420p, 480x480, q=-1--1, 30 fps, 30 tbn, 30 tbc
    Metadata:
      encoder         : Lavc57.107.100 libx264
    Side data:
      cpb: bitrate max/min/avg: 0/0/0 buffer size: 0 vbv_delay: -1
frame=  107 fps=0.0 q=46.0 PSNR=Y:nan U:nan V:nan *:nan size=      41kB time=00:00:02.13 bitrate= 156.2kbits/s speed=4.24x    frame=  170 fps=168 q=46.0 PSNR=Y:nan U:nan V:nan *:nan size=      79kB time=00:00:04.23 bitrate= 152.0kbits/s speed=4.19x    frame=  257 fps=170 q=46.0 PSNR=Y:nan U:nan V:nan *:nan size=     128kB time=00:00:07.13 bitrate= 146.6kbits/s speed=4.71x    frame=  300 fps=145 q=46.0 LPSNR=Y:inf U:inf V:inf *:inf size=     180kB time=00:00:09.93 bitrate= 148.1kbits/s speed=4.79x    
video:180kB audio:0kB subtitle:0kB other streams:0kB global headers:0kB muxing overhead: 0.000000%
[libx264 @ 0x55bdc1c95c60] frame I:2     Avg QP:39.56  size:  5690  PSNR Mean Y:31.81 U:38.28 V:41.53 Avg:33.22 Global:33.21
[libx264 @ 0x55bdc1c95c60] frame P:76    Avg QP:41.30  size:  1275  PSNR Mean Y:30.44 U:38.32 V:41.24 Avg:31.94 Global:31.92
[libx264 @ 0x55bdc1c95c60] frame B:222   Avg QP:45.49  size:   341  PSNR Mean Y:30.06 U:38.28 V:41.26 Avg:31.58 Global:31.57
[libx264 @ 0x55bdc1c95c60] consecutive B-frames:  1.0%  0.0%  3.0% 96.0%
[libx264 @ 0x55bdc1c95c60] mb I  I16..4: 21.1% 63.8% 15.1%
[libx264 @ 0x55bdc1c95c60] mb P  I16..4:  4.3%  4.7%  0.1%  P16..4: 35.6%  6.1%  0.8%  0.0%  0.0%    skip:48.4%
[libx264 @ 0x55bdc1c95c60] mb B  I16..4:  0.2%  0.1%  0.0%  B16..8: 22.3%  1.3%  0.0%  direct: 0.0%  skip:76.1%  L0:37.2% L1:62.4% BI: 0.5%
[libx264 @ 0x55bdc1c95c60] 8x8 transform intra:53.0% inter:90.3%
[libx264 @ 0x55bdc1c95c60] coded y,uvDC,uvAC intra: 14.4% 37.6% 5.3% inter: 1.6% 3.0% 0.0%
[libx264 @ 0x55bdc1c95c60] i16 v,h,dc,p: 19% 47% 16% 18%
[libx264 @ 0x55bdc1c95c60] i8 v,h,dc,ddl,ddr,vr,hd,vl,hu:  9% 14% 49%  1% 11%  9%  5%  1%  2%
[libx264 @ 0x55bdc1c95c60] i4 v,h,dc,ddl,ddr,vr,hd,vl,hu: 18% 19% 16%  1% 20% 15%  7%  2%  2%
[libx264 @ 0x55bdc1c95c60] i8c dc,h,v,p: 69% 20%  8%  3%
[libx264 @ 0x55bdc1c95c60] Weighted P-Frames: Y:1.3% UV:0.0%
[libx264 @ 0x55bdc1c95c60] ref P L0: 66.2% 10.1% 16.3%  7.2%  0.1%
[libx264 @ 0x55bdc1c95c60] ref B L0: 90.0%  7.8%  2.2%
[libx264 @ 0x55bdc1c95c60] ref B L1: 93.4%  6.6%
[libx264 @ 0x55bdc1c95c60] PSNR Mean Y:30.164 U:38.293 V:41.257 Avg:31.680 Global:31.665 kb/s:147.13
